<svg width="16" height="16" viewBox="0 0 16 16" fill="none" xmlns="http://www.w3.org/2000/svg">
<path d="M8.00065 14.6667C11.6673 14.6667 14.6673 11.6667 14.6673 8.00004C14.6673 4.33337 11.6673 1.33337 8.00065 1.33337C4.33398 1.33337 1.33398 4.33337 1.33398 8.00004C1.33398 11.6667 4.33398 14.6667 8.00065 14.6667Z" stroke="#292D32" stroke-linecap="round" stroke-linejoin="round"/>
<path d="M7.34211 8.16C7.34211 8.02 7.38877 7.9 7.48211 7.8C7.58211 7.7 7.70211 7.65 7.84211 7.65C8.12877 7.64333 8.38544 7.59 8.61211 7.49C8.83877 7.39 9.01877 7.24 9.15211 7.04C9.28544 6.84 9.35211 6.59 9.35211 6.29C9.35211 6.03 9.29211 5.80667 9.17211 5.62C9.05877 5.42667 8.90211 5.27667 8.70211 5.17C8.50211 5.05667 8.27544 5 8.02211 5C7.80211 5 7.59877 5.04333 7.41211 5.13C7.22544 5.21667 7.05877 5.33 6.91211 5.47C6.82544 5.55 6.71877 5.61 6.59211 5.65C6.47211 5.68333 6.34877 5.65333 6.22211 5.56C6.08877 5.46667 6.01544 5.35 6.00211 5.21C5.98877 5.07 6.03877 4.94 6.15211 4.82C6.37877 4.56667 6.65544 4.36667 6.98211 4.22C7.30877 4.07333 7.65544 4 8.02211 4C8.45544 4 8.84877 4.1 9.20211 4.3C9.55544 4.5 9.83544 4.77 10.0421 5.11C10.2488 5.45 10.3521 5.84333 10.3521 6.29C10.3521 6.59667 10.3021 6.87667 10.2021 7.13C10.1021 7.38333 9.95877 7.60333 9.77211 7.79C9.58544 7.97667 9.36877 8.12667 9.12211 8.24C8.88211 8.35333 8.61877 8.42667 8.33211 8.46C8.31877 8.46667 8.31211 8.47 8.31211 8.47C8.31877 8.47 8.32877 8.47 8.34211 8.47V9.07C8.34211 9.21 8.29211 9.33 8.19211 9.43C8.09877 9.52333 7.98211 9.57 7.84211 9.57C7.69544 9.57 7.57544 9.52333 7.48211 9.43C7.38877 9.33 7.34211 9.21 7.34211 9.07V8.16ZM7.81211 11.39C7.64544 11.39 7.51544 11.3433 7.42211 11.25C7.33544 11.1567 7.29211 11.0267 7.29211 10.86V10.68C7.29211 10.5067 7.33544 10.3767 7.42211 10.29C7.51544 10.1967 7.64544 10.15 7.81211 10.15H7.91211C8.08544 10.15 8.21544 10.1967 8.30211 10.29C8.38877 10.3767 8.43211 10.5067 8.43211 10.68V10.86C8.43211 11.0267 8.38877 11.1567 8.30211 11.25C8.21544 11.3433 8.08544 11.39 7.91211 11.39H7.81211Z" fill="#292D32"/>
</svg>
